<?xml version="1.0" standalone="no"?>
<!DOCTYPE svg PUBLIC "-//W3C//DTD SVG 20010904//EN"
 "http://www.w3.org/TR/2001/REC-SVG-20010904/DTD/svg10.dtd">
<svg version="1.0" xmlns="http://www.w3.org/2000/svg"
 width="772.000000pt" height="772.000000pt" viewBox="0 0 772.000000 772.000000"
 preserveAspectRatio="xMidYMid meet">
<metadata>
Created by potrace 1.11, written by Peter Selinger 2001-2013
</metadata>
<g transform="translate(0.000000,772.000000) scale(0.100000,-0.100000)"
fill="#000000" stroke="none">
<path d="M1306 7427 c19 -45 40 -95 48 -112 8 -16 26 -61 41 -100 15 -38 33
-83 40 -100 8 -16 58 -138 111 -270 53 -132 103 -256 111 -275 8 -19 19 -44
23 -55 9 -24 89 -222 100 -250 5 -11 41 -103 80 -205 40 -102 78 -198 85 -215
15 -35 55 -139 89 -227 12 -35 40 -106 60 -159 50 -130 98 -265 158 -444 52
-156 56 -170 57 -196 1 -16 16 -15 116 5 11 2 38 7 60 11 53 8 74 12 111 20
29 7 31 5 62 -57 17 -34 48 -115 70 -179 63 -188 57 -283 -33 -458 -31 -61
-92 -162 -113 -186 -5 -6 -17 -24 -27 -40 -36 -56 -159 -220 -188 -250 -56
-59 -136 -171 -194 -275 -128 -228 -128 -227 -244 -353 -146 -156 -168 -188
-193 -271 -33 -109 28 -216 164 -289 60 -33 96 -44 160 -51 14 -1 30 -5 35 -8
24 -13 228 -5 290 12 36 10 65 15 65 13 0 -3 6 -1 13 5 10 8 134 62 144 62 22
0 -58 -175 -104 -227 -10 -11 -38 -28 -63 -38 -88 -37 -166 -98 -228 -180 -24
-31 -53 -109 -57 -152 -5 -44 -2 -55 27 -94 17 -24 43 -55 57 -69 21 -20 26
-35 28 -82 4 -109 47 -198 130 -264 93 -75 109 -104 90 -158 -20 -57 -49 -82
-123 -105 -74 -22 -183 -80 -230 -121 -89 -77 -180 -230 -200 -335 -1 -5 -3
-12 -4 -15 -3 -6 -11 -79 -11 -104 0 -39 77 -131 152 -183 140 -96 334 -165
564 -199 67 -10 389 -13 407 -3 10 5 19 5 22 0 4 -5 24 -4 48 4 122 37 195 80
313 185 39 34 102 80 140 103 61 36 220 103 265 112 8 2 42 10 75 19 33 9 71
19 84 22 14 3 28 7 31 9 4 3 13 -30 20 -72 23 -146 84 -289 170 -398 l35 -44
1202 -1 1202 0 -5 53 c-2 28 -6 79 -9 112 -3 33 -8 85 -10 115 -3 30 -7 80 -9
110 -3 30 -7 96 -11 145 -3 50 -8 110 -10 135 -3 25 -7 92 -10 150 -6 111 -11
210 -21 350 -3 47 -7 114 -9 150 -2 36 -6 103 -10 150 -3 47 -8 112 -10 145
-4 57 -11 143 -21 245 -11 125 -15 159 -21 210 -4 30 -7 79 -7 107 -1 29 -4
53 -7 53 -3 0 -6 21 -8 48 -1 26 -4 61 -6 77 -2 17 -6 61 -10 99 -3 39 -8 73
-10 76 -2 4 -7 33 -10 66 -3 32 -7 75 -10 94 -4 25 4 61 26 120 61 168 112
354 135 495 3 17 7 41 10 55 9 49 18 146 18 202 1 32 3 58 6 58 3 0 4 24 3 52
-4 108 -13 254 -17 278 -3 14 -7 43 -10 65 -10 68 -27 149 -36 175 -5 14 -11
37 -13 52 -1 15 -6 30 -10 34 -4 4 -7 18 -7 30 0 13 -4 25 -9 28 -4 3 -11 19
-14 36 -4 16 -16 50 -27 74 -11 25 -20 48 -20 51 0 18 -108 220 -158 294 -56
85 -219 258 -317 336 -27 22 -55 45 -61 50 -30 28 -285 218 -390 290 -48 33
-107 75 -131 93 -25 18 -56 38 -69 44 -13 6 -24 15 -24 20 0 4 -4 8 -9 8 -5 0
-53 29 -106 65 -54 36 -103 65 -110 65 -8 0 -15 4 -17 8 -3 9 -397 245 -453
272 -16 8 -41 22 -55 31 -70 46 -652 339 -673 339 -8 0 -20 7 -27 15 -7 8 -17
15 -22 15 -9 0 -28 8 -158 67 -30 14 -113 50 -185 80 -71 30 -148 63 -170 73
-22 10 -65 27 -95 40 -30 12 -73 30 -95 40 -22 9 -116 48 -210 85 -93 37 -179
71 -190 75 -30 13 -110 44 -205 80 -47 18 -95 36 -107 41 -57 23 -161 59 -178
63 -5 1 -16 5 -23 9 -7 5 -24 11 -39 13 -15 3 -32 9 -38 14 -6 5 -22 11 -37
14 -14 2 -35 9 -45 14 -10 6 -21 11 -25 11 -4 1 -13 4 -20 6 -84 30 -491 150
-539 158 -13 3 -44 10 -69 17 -45 12 -63 16 -112 25 l-26 5 34 -83z"/>
</g>
</svg>
